<mxfile host="app.diagrams.net" modified="2021-04-08T16:09:14.018Z" agent="5.0 (Windows NT 10.0; Win64; x64) AppleWebKit/537.36 (KHTML, like Gecko) Chrome/89.0.4389.114 Safari/537.36" etag="Pj-TpnezPs96kYEruW2H" version="14.5.8" type="github">
  <diagram id="p__v9j3c49mNYrNBz_HG" name="Page-1">
    <mxGraphModel dx="942" dy="614" grid="1" gridSize="10" guides="1" tooltips="1" connect="1" arrows="1" fold="1" page="1" pageScale="1" pageWidth="827" pageHeight="1169" math="0" shadow="0">
      <root>
        <object label="" id="0">
          <mxCell />
        </object>
        <mxCell id="1" parent="0" />
        <mxCell id="vbaEZDl9QH7F2FkEWpM7-30" value="yonetici" style="swimlane;fontStyle=0;childLayout=stackLayout;horizontal=1;startSize=26;fillColor=none;horizontalStack=0;resizeParent=1;resizeParentMax=0;resizeLast=0;collapsible=1;marginBottom=0;" vertex="1" parent="1">
          <mxGeometry x="300" y="10" width="140" height="104" as="geometry" />
        </mxCell>
        <mxCell id="vbaEZDl9QH7F2FkEWpM7-31" value="+ yontici_id" style="text;strokeColor=none;fillColor=none;align=left;verticalAlign=top;spacingLeft=4;spacingRight=4;overflow=hidden;rotatable=0;points=[[0,0.5],[1,0.5]];portConstraint=eastwest;" vertex="1" parent="vbaEZDl9QH7F2FkEWpM7-30">
          <mxGeometry y="26" width="140" height="26" as="geometry" />
        </mxCell>
        <mxCell id="vbaEZDl9QH7F2FkEWpM7-32" value="+yonetici_adi&#xa;" style="text;strokeColor=none;fillColor=none;align=left;verticalAlign=top;spacingLeft=4;spacingRight=4;overflow=hidden;rotatable=0;points=[[0,0.5],[1,0.5]];portConstraint=eastwest;" vertex="1" parent="vbaEZDl9QH7F2FkEWpM7-30">
          <mxGeometry y="52" width="140" height="26" as="geometry" />
        </mxCell>
        <mxCell id="vbaEZDl9QH7F2FkEWpM7-33" value="+yonetici_sifre" style="text;strokeColor=none;fillColor=none;align=left;verticalAlign=top;spacingLeft=4;spacingRight=4;overflow=hidden;rotatable=0;points=[[0,0.5],[1,0.5]];portConstraint=eastwest;" vertex="1" parent="vbaEZDl9QH7F2FkEWpM7-30">
          <mxGeometry y="78" width="140" height="26" as="geometry" />
        </mxCell>
        <mxCell id="vbaEZDl9QH7F2FkEWpM7-34" value="oluşturur" style="rhombus;whiteSpace=wrap;html=1;fillColor=#ffffc0;strokeColor=#ff0000;" vertex="1" parent="1">
          <mxGeometry x="190" y="144" width="80" height="40" as="geometry" />
        </mxCell>
        <mxCell id="vbaEZDl9QH7F2FkEWpM7-35" value="" style="edgeStyle=orthogonalEdgeStyle;html=1;align=left;verticalAlign=bottom;endArrow=open;endSize=8;strokeColor=#ff0000;entryX=0.5;entryY=0;entryDx=0;entryDy=0;" edge="1" source="vbaEZDl9QH7F2FkEWpM7-34" parent="1" target="vbaEZDl9QH7F2FkEWpM7-44">
          <mxGeometry x="-0.5181" y="-44" relative="1" as="geometry">
            <mxPoint x="110" y="250" as="targetPoint" />
            <Array as="points">
              <mxPoint x="120" y="164" />
            </Array>
            <mxPoint as="offset" />
          </mxGeometry>
        </mxCell>
        <mxCell id="vbaEZDl9QH7F2FkEWpM7-36" value="" style="edgeStyle=orthogonalEdgeStyle;html=1;align=left;verticalAlign=top;endArrow=open;endSize=8;strokeColor=#ff0000;entryX=-0.021;entryY=0.144;entryDx=0;entryDy=0;entryPerimeter=0;" edge="1" source="vbaEZDl9QH7F2FkEWpM7-34" parent="1" target="vbaEZDl9QH7F2FkEWpM7-30">
          <mxGeometry x="0.2043" y="66" relative="1" as="geometry">
            <mxPoint x="160" y="220" as="targetPoint" />
            <Array as="points">
              <mxPoint x="230" y="25" />
            </Array>
            <mxPoint x="-37" y="11" as="offset" />
          </mxGeometry>
        </mxCell>
        <mxCell id="vbaEZDl9QH7F2FkEWpM7-42" value="1" style="text;html=1;align=center;verticalAlign=middle;resizable=0;points=[];autosize=1;strokeColor=none;" vertex="1" parent="1">
          <mxGeometry x="240" y="110" width="20" height="20" as="geometry" />
        </mxCell>
        <mxCell id="vbaEZDl9QH7F2FkEWpM7-43" value="n" style="text;html=1;align=center;verticalAlign=middle;resizable=0;points=[];autosize=1;strokeColor=none;" vertex="1" parent="1">
          <mxGeometry x="160" y="144" width="20" height="20" as="geometry" />
        </mxCell>
        <mxCell id="vbaEZDl9QH7F2FkEWpM7-44" value="içecek_liste" style="swimlane;fontStyle=0;childLayout=stackLayout;horizontal=1;startSize=26;fillColor=none;horizontalStack=0;resizeParent=1;resizeParentMax=0;resizeLast=0;collapsible=1;marginBottom=0;" vertex="1" parent="1">
          <mxGeometry x="50" y="260" width="140" height="78" as="geometry" />
        </mxCell>
        <mxCell id="vbaEZDl9QH7F2FkEWpM7-45" value="+içecek_id" style="text;strokeColor=none;fillColor=none;align=left;verticalAlign=top;spacingLeft=4;spacingRight=4;overflow=hidden;rotatable=0;points=[[0,0.5],[1,0.5]];portConstraint=eastwest;" vertex="1" parent="vbaEZDl9QH7F2FkEWpM7-44">
          <mxGeometry y="26" width="140" height="26" as="geometry" />
        </mxCell>
        <mxCell id="vbaEZDl9QH7F2FkEWpM7-46" value="+içecek_adi" style="text;strokeColor=none;fillColor=none;align=left;verticalAlign=top;spacingLeft=4;spacingRight=4;overflow=hidden;rotatable=0;points=[[0,0.5],[1,0.5]];portConstraint=eastwest;" vertex="1" parent="vbaEZDl9QH7F2FkEWpM7-44">
          <mxGeometry y="52" width="140" height="26" as="geometry" />
        </mxCell>
        <mxCell id="vbaEZDl9QH7F2FkEWpM7-48" value="kullanıcı" style="swimlane;fontStyle=0;childLayout=stackLayout;horizontal=1;startSize=26;fillColor=none;horizontalStack=0;resizeParent=1;resizeParentMax=0;resizeLast=0;collapsible=1;marginBottom=0;" vertex="1" parent="1">
          <mxGeometry x="610" y="260" width="140" height="78" as="geometry" />
        </mxCell>
        <mxCell id="vbaEZDl9QH7F2FkEWpM7-49" value="+ kullanıcı_id" style="text;strokeColor=none;fillColor=none;align=left;verticalAlign=top;spacingLeft=4;spacingRight=4;overflow=hidden;rotatable=0;points=[[0,0.5],[1,0.5]];portConstraint=eastwest;" vertex="1" parent="vbaEZDl9QH7F2FkEWpM7-48">
          <mxGeometry y="26" width="140" height="26" as="geometry" />
        </mxCell>
        <mxCell id="vbaEZDl9QH7F2FkEWpM7-50" value="+kullanıcı_adi" style="text;strokeColor=none;fillColor=none;align=left;verticalAlign=top;spacingLeft=4;spacingRight=4;overflow=hidden;rotatable=0;points=[[0,0.5],[1,0.5]];portConstraint=eastwest;" vertex="1" parent="vbaEZDl9QH7F2FkEWpM7-48">
          <mxGeometry y="52" width="140" height="26" as="geometry" />
        </mxCell>
        <mxCell id="vbaEZDl9QH7F2FkEWpM7-52" value="görür" style="rhombus;whiteSpace=wrap;html=1;fillColor=#ffffc0;strokeColor=#ff0000;" vertex="1" parent="1">
          <mxGeometry x="390" y="495" width="80" height="40" as="geometry" />
        </mxCell>
        <mxCell id="vbaEZDl9QH7F2FkEWpM7-53" value="n" style="edgeStyle=orthogonalEdgeStyle;html=1;align=left;verticalAlign=bottom;endArrow=open;endSize=8;strokeColor=#ff0000;entryX=0;entryY=0.25;entryDx=0;entryDy=0;" edge="1" source="vbaEZDl9QH7F2FkEWpM7-52" parent="1" target="vbaEZDl9QH7F2FkEWpM7-48">
          <mxGeometry x="-0.5545" y="10" relative="1" as="geometry">
            <mxPoint x="504" y="280" as="targetPoint" />
            <mxPoint as="offset" />
          </mxGeometry>
        </mxCell>
        <mxCell id="vbaEZDl9QH7F2FkEWpM7-54" value="" style="edgeStyle=orthogonalEdgeStyle;html=1;align=left;verticalAlign=top;endArrow=open;endSize=8;strokeColor=#ff0000;entryX=1;entryY=0.25;entryDx=0;entryDy=0;exitX=0;exitY=0.5;exitDx=0;exitDy=0;" edge="1" source="vbaEZDl9QH7F2FkEWpM7-52" parent="1" target="vbaEZDl9QH7F2FkEWpM7-90">
          <mxGeometry x="-0.4918" y="-20" relative="1" as="geometry">
            <mxPoint x="364" y="410" as="targetPoint" />
            <Array as="points">
              <mxPoint x="390" y="535" />
              <mxPoint x="350" y="535" />
            </Array>
            <mxPoint as="offset" />
          </mxGeometry>
        </mxCell>
        <mxCell id="vbaEZDl9QH7F2FkEWpM7-56" value="çalışan" style="swimlane;fontStyle=0;childLayout=stackLayout;horizontal=1;startSize=26;fillColor=none;horizontalStack=0;resizeParent=1;resizeParentMax=0;resizeLast=0;collapsible=1;marginBottom=0;" vertex="1" parent="1">
          <mxGeometry x="50" y="540" width="140" height="104" as="geometry" />
        </mxCell>
        <mxCell id="vbaEZDl9QH7F2FkEWpM7-57" value="+calisan_id" style="text;strokeColor=none;fillColor=none;align=left;verticalAlign=top;spacingLeft=4;spacingRight=4;overflow=hidden;rotatable=0;points=[[0,0.5],[1,0.5]];portConstraint=eastwest;" vertex="1" parent="vbaEZDl9QH7F2FkEWpM7-56">
          <mxGeometry y="26" width="140" height="26" as="geometry" />
        </mxCell>
        <mxCell id="vbaEZDl9QH7F2FkEWpM7-58" value="+calisan_adi" style="text;strokeColor=none;fillColor=none;align=left;verticalAlign=top;spacingLeft=4;spacingRight=4;overflow=hidden;rotatable=0;points=[[0,0.5],[1,0.5]];portConstraint=eastwest;" vertex="1" parent="vbaEZDl9QH7F2FkEWpM7-56">
          <mxGeometry y="52" width="140" height="26" as="geometry" />
        </mxCell>
        <mxCell id="vbaEZDl9QH7F2FkEWpM7-59" value="+calisan_sifre" style="text;strokeColor=none;fillColor=none;align=left;verticalAlign=top;spacingLeft=4;spacingRight=4;overflow=hidden;rotatable=0;points=[[0,0.5],[1,0.5]];portConstraint=eastwest;" vertex="1" parent="vbaEZDl9QH7F2FkEWpM7-56">
          <mxGeometry y="78" width="140" height="26" as="geometry" />
        </mxCell>
        <mxCell id="vbaEZDl9QH7F2FkEWpM7-110" style="edgeStyle=orthogonalEdgeStyle;rounded=0;orthogonalLoop=1;jettySize=auto;html=1;" edge="1" parent="1" source="vbaEZDl9QH7F2FkEWpM7-60" target="vbaEZDl9QH7F2FkEWpM7-109">
          <mxGeometry relative="1" as="geometry" />
        </mxCell>
        <mxCell id="vbaEZDl9QH7F2FkEWpM7-60" value="olusturur" style="rhombus;whiteSpace=wrap;html=1;fillColor=#ffffc0;strokeColor=#ff0000;" vertex="1" parent="1">
          <mxGeometry x="680" y="500" width="90" height="56" as="geometry" />
        </mxCell>
        <mxCell id="vbaEZDl9QH7F2FkEWpM7-61" value="" style="edgeStyle=orthogonalEdgeStyle;html=1;align=left;verticalAlign=bottom;endArrow=open;endSize=8;strokeColor=#ff0000;entryX=0.486;entryY=1.115;entryDx=0;entryDy=0;entryPerimeter=0;exitX=0.5;exitY=0;exitDx=0;exitDy=0;" edge="1" source="vbaEZDl9QH7F2FkEWpM7-60" parent="1" target="vbaEZDl9QH7F2FkEWpM7-50">
          <mxGeometry x="-1" relative="1" as="geometry">
            <mxPoint x="630" y="440" as="targetPoint" />
            <Array as="points">
              <mxPoint x="725" y="400" />
              <mxPoint x="678" y="400" />
            </Array>
          </mxGeometry>
        </mxCell>
        <mxCell id="vbaEZDl9QH7F2FkEWpM7-103" value="n" style="edgeLabel;html=1;align=center;verticalAlign=middle;resizable=0;points=[];" vertex="1" connectable="0" parent="vbaEZDl9QH7F2FkEWpM7-61">
          <mxGeometry x="-0.7573" y="-5" relative="1" as="geometry">
            <mxPoint as="offset" />
          </mxGeometry>
        </mxCell>
        <mxCell id="vbaEZDl9QH7F2FkEWpM7-62" value="" style="edgeStyle=orthogonalEdgeStyle;html=1;align=left;verticalAlign=top;endArrow=open;endSize=8;strokeColor=#ff0000;entryX=0.5;entryY=0;entryDx=0;entryDy=0;" edge="1" source="vbaEZDl9QH7F2FkEWpM7-60" parent="1" target="vbaEZDl9QH7F2FkEWpM7-64">
          <mxGeometry x="-1" relative="1" as="geometry">
            <mxPoint x="460" y="480" as="targetPoint" />
          </mxGeometry>
        </mxCell>
        <mxCell id="vbaEZDl9QH7F2FkEWpM7-64" value="tepsi" style="swimlane;fontStyle=0;childLayout=stackLayout;horizontal=1;startSize=26;fillColor=none;horizontalStack=0;resizeParent=1;resizeParentMax=0;resizeLast=0;collapsible=1;marginBottom=0;" vertex="1" parent="1">
          <mxGeometry x="640" y="680" width="140" height="104" as="geometry" />
        </mxCell>
        <mxCell id="vbaEZDl9QH7F2FkEWpM7-65" value="+kullanıcı_id" style="text;strokeColor=none;fillColor=none;align=left;verticalAlign=top;spacingLeft=4;spacingRight=4;overflow=hidden;rotatable=0;points=[[0,0.5],[1,0.5]];portConstraint=eastwest;" vertex="1" parent="vbaEZDl9QH7F2FkEWpM7-64">
          <mxGeometry y="26" width="140" height="26" as="geometry" />
        </mxCell>
        <mxCell id="vbaEZDl9QH7F2FkEWpM7-66" value="+içecek_id" style="text;strokeColor=none;fillColor=none;align=left;verticalAlign=top;spacingLeft=4;spacingRight=4;overflow=hidden;rotatable=0;points=[[0,0.5],[1,0.5]];portConstraint=eastwest;" vertex="1" parent="vbaEZDl9QH7F2FkEWpM7-64">
          <mxGeometry y="52" width="140" height="26" as="geometry" />
        </mxCell>
        <mxCell id="vbaEZDl9QH7F2FkEWpM7-114" value="+olusturma_  tarihi" style="text;strokeColor=none;fillColor=none;align=left;verticalAlign=top;spacingLeft=4;spacingRight=4;overflow=hidden;rotatable=0;points=[[0,0.5],[1,0.5]];portConstraint=eastwest;" vertex="1" parent="vbaEZDl9QH7F2FkEWpM7-64">
          <mxGeometry y="78" width="140" height="26" as="geometry" />
        </mxCell>
        <mxCell id="vbaEZDl9QH7F2FkEWpM7-74" value="listeyi görürü" style="rhombus;whiteSpace=wrap;html=1;fillColor=#ffffc0;strokeColor=#ff0000;" vertex="1" parent="1">
          <mxGeometry x="570" y="55" width="80" height="40" as="geometry" />
        </mxCell>
        <mxCell id="vbaEZDl9QH7F2FkEWpM7-75" value="" style="edgeStyle=orthogonalEdgeStyle;html=1;align=left;verticalAlign=bottom;endArrow=open;endSize=8;strokeColor=#ff0000;entryX=0.5;entryY=0;entryDx=0;entryDy=0;" edge="1" source="vbaEZDl9QH7F2FkEWpM7-74" parent="1" target="vbaEZDl9QH7F2FkEWpM7-48">
          <mxGeometry x="0.2979" y="68" relative="1" as="geometry">
            <mxPoint x="750" y="75" as="targetPoint" />
            <mxPoint x="-58" y="-68" as="offset" />
          </mxGeometry>
        </mxCell>
        <mxCell id="vbaEZDl9QH7F2FkEWpM7-76" value="" style="edgeStyle=orthogonalEdgeStyle;html=1;align=left;verticalAlign=top;endArrow=open;endSize=8;strokeColor=#ff0000;entryX=1.014;entryY=0.163;entryDx=0;entryDy=0;entryPerimeter=0;" edge="1" source="vbaEZDl9QH7F2FkEWpM7-74" parent="1" target="vbaEZDl9QH7F2FkEWpM7-30">
          <mxGeometry x="-1" relative="1" as="geometry">
            <mxPoint x="460" y="68" as="targetPoint" />
          </mxGeometry>
        </mxCell>
        <mxCell id="vbaEZDl9QH7F2FkEWpM7-77" value="1" style="text;html=1;align=center;verticalAlign=middle;resizable=0;points=[];autosize=1;strokeColor=none;" vertex="1" parent="1">
          <mxGeometry x="530" y="50" width="20" height="20" as="geometry" />
        </mxCell>
        <mxCell id="vbaEZDl9QH7F2FkEWpM7-78" value="n" style="text;html=1;align=center;verticalAlign=middle;resizable=0;points=[];autosize=1;strokeColor=none;" vertex="1" parent="1">
          <mxGeometry x="610" y="110" width="20" height="20" as="geometry" />
        </mxCell>
        <mxCell id="vbaEZDl9QH7F2FkEWpM7-80" value="görür" style="rhombus;whiteSpace=wrap;html=1;fillColor=#ffffc0;strokeColor=#ff0000;" vertex="1" parent="1">
          <mxGeometry x="80" y="400" width="80" height="40" as="geometry" />
        </mxCell>
        <mxCell id="vbaEZDl9QH7F2FkEWpM7-81" value="" style="edgeStyle=orthogonalEdgeStyle;html=1;align=left;verticalAlign=bottom;endArrow=open;endSize=8;strokeColor=#ff0000;entryX=0;entryY=0.128;entryDx=0;entryDy=0;entryPerimeter=0;" edge="1" source="vbaEZDl9QH7F2FkEWpM7-80" parent="1" target="vbaEZDl9QH7F2FkEWpM7-44">
          <mxGeometry x="-1" relative="1" as="geometry">
            <mxPoint x="260" y="420" as="targetPoint" />
          </mxGeometry>
        </mxCell>
        <mxCell id="vbaEZDl9QH7F2FkEWpM7-82" value="" style="edgeStyle=orthogonalEdgeStyle;html=1;align=left;verticalAlign=top;endArrow=open;endSize=8;strokeColor=#ff0000;entryX=0.5;entryY=0;entryDx=0;entryDy=0;" edge="1" source="vbaEZDl9QH7F2FkEWpM7-80" parent="1" target="vbaEZDl9QH7F2FkEWpM7-56">
          <mxGeometry x="-1" relative="1" as="geometry">
            <mxPoint x="120" y="500" as="targetPoint" />
          </mxGeometry>
        </mxCell>
        <mxCell id="vbaEZDl9QH7F2FkEWpM7-112" style="edgeStyle=orthogonalEdgeStyle;rounded=0;orthogonalLoop=1;jettySize=auto;html=1;entryX=0.5;entryY=1;entryDx=0;entryDy=0;" edge="1" parent="1" source="vbaEZDl9QH7F2FkEWpM7-83" target="vbaEZDl9QH7F2FkEWpM7-111">
          <mxGeometry relative="1" as="geometry" />
        </mxCell>
        <mxCell id="vbaEZDl9QH7F2FkEWpM7-83" value="olusturur" style="rhombus;whiteSpace=wrap;html=1;fillColor=#ffffc0;strokeColor=#ff0000;" vertex="1" parent="1">
          <mxGeometry x="240" y="535" width="80" height="40" as="geometry" />
        </mxCell>
        <mxCell id="vbaEZDl9QH7F2FkEWpM7-84" value="" style="edgeStyle=orthogonalEdgeStyle;html=1;align=left;verticalAlign=bottom;endArrow=open;endSize=8;strokeColor=#ff0000;entryX=0.5;entryY=0;entryDx=0;entryDy=0;" edge="1" source="vbaEZDl9QH7F2FkEWpM7-83" parent="1" target="vbaEZDl9QH7F2FkEWpM7-90">
          <mxGeometry x="-1" relative="1" as="geometry">
            <mxPoint x="280" y="700" as="targetPoint" />
          </mxGeometry>
        </mxCell>
        <mxCell id="vbaEZDl9QH7F2FkEWpM7-85" value="" style="edgeStyle=orthogonalEdgeStyle;html=1;align=left;verticalAlign=top;endArrow=open;endSize=8;strokeColor=#ff0000;entryX=1.007;entryY=0.106;entryDx=0;entryDy=0;entryPerimeter=0;" edge="1" source="vbaEZDl9QH7F2FkEWpM7-83" parent="1" target="vbaEZDl9QH7F2FkEWpM7-56">
          <mxGeometry x="-1" relative="1" as="geometry">
            <mxPoint x="280" y="635" as="targetPoint" />
          </mxGeometry>
        </mxCell>
        <mxCell id="vbaEZDl9QH7F2FkEWpM7-90" value="menü" style="swimlane;fontStyle=0;childLayout=stackLayout;horizontal=1;startSize=26;fillColor=none;horizontalStack=0;resizeParent=1;resizeParentMax=0;resizeLast=0;collapsible=1;marginBottom=0;" vertex="1" parent="1">
          <mxGeometry x="210" y="720" width="140" height="78" as="geometry" />
        </mxCell>
        <mxCell id="vbaEZDl9QH7F2FkEWpM7-91" value="+içecek_id" style="text;strokeColor=none;fillColor=none;align=left;verticalAlign=top;spacingLeft=4;spacingRight=4;overflow=hidden;rotatable=0;points=[[0,0.5],[1,0.5]];portConstraint=eastwest;" vertex="1" parent="vbaEZDl9QH7F2FkEWpM7-90">
          <mxGeometry y="26" width="140" height="26" as="geometry" />
        </mxCell>
        <mxCell id="vbaEZDl9QH7F2FkEWpM7-113" value="+olusturma_tarihi" style="text;strokeColor=none;fillColor=none;align=left;verticalAlign=top;spacingLeft=4;spacingRight=4;overflow=hidden;rotatable=0;points=[[0,0.5],[1,0.5]];portConstraint=eastwest;" vertex="1" parent="vbaEZDl9QH7F2FkEWpM7-90">
          <mxGeometry y="52" width="140" height="26" as="geometry" />
        </mxCell>
        <mxCell id="vbaEZDl9QH7F2FkEWpM7-97" value="göderir" style="rhombus;whiteSpace=wrap;html=1;fillColor=#ffffc0;strokeColor=#ff0000;" vertex="1" parent="1">
          <mxGeometry x="300" y="840" width="80" height="40" as="geometry" />
        </mxCell>
        <mxCell id="vbaEZDl9QH7F2FkEWpM7-98" value="" style="edgeStyle=orthogonalEdgeStyle;html=1;align=left;verticalAlign=bottom;endArrow=open;endSize=8;strokeColor=#ff0000;entryX=-0.007;entryY=0.179;entryDx=0;entryDy=0;entryPerimeter=0;" edge="1" source="vbaEZDl9QH7F2FkEWpM7-97" parent="1" target="vbaEZDl9QH7F2FkEWpM7-64">
          <mxGeometry x="-1" relative="1" as="geometry">
            <mxPoint x="480" y="860" as="targetPoint" />
          </mxGeometry>
        </mxCell>
        <mxCell id="vbaEZDl9QH7F2FkEWpM7-99" value="" style="edgeStyle=orthogonalEdgeStyle;html=1;align=left;verticalAlign=top;endArrow=open;endSize=8;strokeColor=#ff0000;entryX=-0.021;entryY=0.125;entryDx=0;entryDy=0;entryPerimeter=0;" edge="1" source="vbaEZDl9QH7F2FkEWpM7-97" parent="1" target="vbaEZDl9QH7F2FkEWpM7-56">
          <mxGeometry x="-1" relative="1" as="geometry">
            <mxPoint x="340" y="940" as="targetPoint" />
            <Array as="points">
              <mxPoint x="10" y="860" />
              <mxPoint x="10" y="553" />
            </Array>
          </mxGeometry>
        </mxCell>
        <mxCell id="vbaEZDl9QH7F2FkEWpM7-100" value="1" style="text;html=1;align=center;verticalAlign=middle;resizable=0;points=[];autosize=1;strokeColor=none;" vertex="1" parent="1">
          <mxGeometry x="220" y="556" width="20" height="20" as="geometry" />
        </mxCell>
        <mxCell id="vbaEZDl9QH7F2FkEWpM7-101" value="1" style="text;html=1;align=center;verticalAlign=middle;resizable=0;points=[];autosize=1;strokeColor=none;" vertex="1" parent="1">
          <mxGeometry x="280" y="620" width="20" height="20" as="geometry" />
        </mxCell>
        <mxCell id="vbaEZDl9QH7F2FkEWpM7-102" value="1" style="text;html=1;align=center;verticalAlign=middle;resizable=0;points=[];autosize=1;strokeColor=none;" vertex="1" parent="1">
          <mxGeometry x="350" y="600" width="20" height="20" as="geometry" />
        </mxCell>
        <mxCell id="vbaEZDl9QH7F2FkEWpM7-104" value="n" style="text;html=1;align=center;verticalAlign=middle;resizable=0;points=[];autosize=1;strokeColor=none;" vertex="1" parent="1">
          <mxGeometry x="720" y="580" width="20" height="20" as="geometry" />
        </mxCell>
        <mxCell id="vbaEZDl9QH7F2FkEWpM7-105" value="1" style="text;html=1;align=center;verticalAlign=middle;resizable=0;points=[];autosize=1;strokeColor=none;" vertex="1" parent="1">
          <mxGeometry x="550" y="690" width="20" height="20" as="geometry" />
        </mxCell>
        <mxCell id="vbaEZDl9QH7F2FkEWpM7-106" value="1" style="text;html=1;align=center;verticalAlign=middle;resizable=0;points=[];autosize=1;strokeColor=none;" vertex="1" parent="1">
          <mxGeometry x="10" y="590" width="20" height="20" as="geometry" />
        </mxCell>
        <mxCell id="vbaEZDl9QH7F2FkEWpM7-107" value="1" style="text;html=1;align=center;verticalAlign=middle;resizable=0;points=[];autosize=1;strokeColor=none;" vertex="1" parent="1">
          <mxGeometry x="120" y="370" width="20" height="20" as="geometry" />
        </mxCell>
        <mxCell id="vbaEZDl9QH7F2FkEWpM7-108" value="n" style="text;html=1;align=center;verticalAlign=middle;resizable=0;points=[];autosize=1;strokeColor=none;" vertex="1" parent="1">
          <mxGeometry x="120" y="450" width="20" height="20" as="geometry" />
        </mxCell>
        <mxCell id="vbaEZDl9QH7F2FkEWpM7-109" value="olusturma tarihi" style="ellipse;whiteSpace=wrap;html=1;" vertex="1" parent="1">
          <mxGeometry x="560" y="529" width="90" height="46" as="geometry" />
        </mxCell>
        <mxCell id="vbaEZDl9QH7F2FkEWpM7-111" value="olusturma tarihi" style="ellipse;whiteSpace=wrap;html=1;" vertex="1" parent="1">
          <mxGeometry x="220" y="449" width="90" height="46" as="geometry" />
        </mxCell>
        <mxCell id="vbaEZDl9QH7F2FkEWpM7-116" value="listeyi_görür" style="rhombus;whiteSpace=wrap;html=1;fillColor=#ffffc0;strokeColor=#ff0000;" vertex="1" parent="1">
          <mxGeometry x="280" y="230" width="80" height="40" as="geometry" />
        </mxCell>
        <mxCell id="vbaEZDl9QH7F2FkEWpM7-117" value="" style="edgeStyle=orthogonalEdgeStyle;html=1;align=left;verticalAlign=bottom;endArrow=open;endSize=8;strokeColor=#ff0000;entryX=0.507;entryY=0.962;entryDx=0;entryDy=0;entryPerimeter=0;" edge="1" source="vbaEZDl9QH7F2FkEWpM7-116" parent="1" target="vbaEZDl9QH7F2FkEWpM7-33">
          <mxGeometry x="-1" relative="1" as="geometry">
            <mxPoint x="460" y="250" as="targetPoint" />
          </mxGeometry>
        </mxCell>
        <mxCell id="vbaEZDl9QH7F2FkEWpM7-118" value="" style="edgeStyle=orthogonalEdgeStyle;html=1;align=left;verticalAlign=top;endArrow=open;endSize=8;strokeColor=#ff0000;entryX=0.893;entryY=-0.029;entryDx=0;entryDy=0;entryPerimeter=0;" edge="1" source="vbaEZDl9QH7F2FkEWpM7-116" parent="1" target="vbaEZDl9QH7F2FkEWpM7-56">
          <mxGeometry x="-1" relative="1" as="geometry">
            <mxPoint x="320" y="330" as="targetPoint" />
            <Array as="points">
              <mxPoint x="260" y="250" />
              <mxPoint x="260" y="390" />
              <mxPoint x="175" y="390" />
            </Array>
          </mxGeometry>
        </mxCell>
      </root>
    </mxGraphModel>
  </diagram>
</mxfile>
